/* XPM */
static char *kovel_xpm[] = {
/* columns rows colors chars-per-pixel */
"32 32 154 2 ",
"   c #000000",
".  c #010000",
"X  c #000100",
"o  c #010100",
"O  c #000001",
"+  c #000101",
"@  c #020000",
"#  c #030000",
"$  c #000200",
"%  c #000002",
"&  c #040000",
"*  c #000400",
"=  c #000500",
"-  c #000600",
";  c #000700",
":  c #000004",
">  c #000005",
",  c #000006",
"<  c #000007",
"1  c #0A0000",
"2  c #0C0100",
"3  c #0F0000",
"4  c #000800",
"5  c #000900",
"6  c #000A00",
"7  c #000B00",
"8  c #000C00",
"9  c #000D00",
"0  c #010D00",
"q  c #000E00",
"w  c #000F00",
"e  c #050C00",
"r  c #090800",
"t  c #000009",
"y  c #00000A",
"u  c #00000E",
"i  c #00000F",
"p  c #140000",
"a  c #150000",
"s  c #160100",
"d  c #110400",
"f  c #170400",
"g  c #190100",
"h  c #1C0100",
"j  c #1F0100",
"k  c #1A0C00",
"l  c #160108",
"z  c #001100",
"x  c #011100",
"c  c #001200",
"v  c #001300",
"b  c #001400",
"n  c #011400",
"m  c #001500",
"M  c #001600",
"N  c #001601",
"B  c #011504",
"V  c #0E1002",
"C  c #0A1400",
"Z  c #001800",
"A  c #001A00",
"S  c #001C00",
"D  c #001E00",
"F  c #121200",
"G  c #181400",
"H  c #000010",
"J  c #000012",
"K  c #000013",
"L  c #000015",
"P  c #000016",
"I  c #000017",
"U  c #000018",
"Y  c #000019",
"T  c #00001A",
"R  c #00001B",
"E  c #00001C",
"W  c #01011C",
"Q  c #00001D",
"!  c #00001F",
"~  c #210000",
"^  c #002100",
"/  c #002400",
"(  c #002500",
")  c #002900",
"_  c #002C00",
"`  c #002E00",
"'  c #002F00",
"]  c #003100",
"[  c #003500",
"{  c #003700",
"}  c #003800",
"|  c #003A00",
" . c #003D00",
".. c #003E00",
"X. c #003F00",
"o. c #000020",
"O. c #000021",
"+. c #000022",
"@. c #004000",
"#. c #004100",
"$. c #004200",
"%. c #004600",
"&. c #004700",
"*. c #024700",
"=. c #004800",
"-. c #004900",
";. c #004A00",
":. c #004B00",
">. c #004C00",
",. c #004D00",
"<. c #004E00",
"1. c #004F00",
"2. c #005000",
"3. c #005100",
"4. c #005200",
"5. c #005300",
"6. c #005400",
"7. c #005500",
"8. c #005600",
"9. c #005700",
"0. c #005800",
"q. c #005900",
"w. c #005A00",
"e. c #005B00",
"r. c #045B00",
"t. c #005E00",
"y. c #005F00",
"u. c #006100",
"i. c #006200",
"p. c #006400",
"a. c #006600",
"s. c #006700",
"d. c #006900",
"f. c #006A00",
"g. c #006B00",
"h. c #006C00",
"j. c #006E00",
"k. c #006F00",
"l. c #007100",
"z. c #007200",
"x. c #007400",
"c. c #007500",
"v. c #007600",
"b. c #017600",
"n. c #017700",
"m. c #007800",
"M. c #007C00",
"N. c #007D00",
"B. c #007E00",
"V. c #008000",
"C. c #008100",
"Z. c #008200",
"A. c #008300",
"S. c #008400",
/* pixels */
"                    Z c                                         ",
"                    N c                                         ",
"                    N w           *                             ",
"                    N c                                         ",
"                    Z c       / 1.] /                           ",
"                    N c       a.V.B.z.5                         ",
"                    N c     c V.V.V.d.5                         ",
"                    N c     N a.x.B.y.5                         ",
"                    N c     c 1.1.y.9.5                         ",
"                    N c     N 2.-.-.-.w                         ",
"                *   B r 1 & N 2.1.1.1.5   *                     ",
"                    W l j ~ G 1.-.1.1.e           c ) N 5 *     ",
"                  y o.      n 1.-.-.1.k ~ ~ j f d -.V.x.z.N     ",
"                  W i       N 2.1.1.1.5   & r 3 g r.d.z.a.F a 3 ",
"                < o.        N 2.-.1.-.w     q.j.9.-.1.-.2.C a g ",
"                W J         N 2.1.1.-.w   / x.x.m.2.2.2.-.*     ",
"                o.          N 2.-.-.2.9.| -.2.2.q.-.] @./       ",
"              I I           c 2.1.-.u.B.V.d.-.1.2.|             ",
"              o.            N 1.1.-.9.q.y.y.@.X.1.N             ",
"            J W             c 2.-.1.-.-.*.1.X./ Z *             ",
"            o.<             N 2.1.-.1.1.2.2.x.x.z.2.            ",
"          J W               N 2.-.1.1.D Z *.j.d.x.1.    *       ",
"          o.y               c 1.1.1.-.5   _ 2.-.2.*.            ",
"        i W                 N 1.-.1.1.w   ] q.2.1.q.a.2.*.w     ",
"        o.i                 N 1.-.-.1.w   N _ | @.d.m.B.x.N     ",
"      y W               *   c 9.2.9.|           * 1.9.q.9.c     ",
"  <   W i                   * D / [ N           * -.1.-.1.c     ",
"    < o.                                        * X.-.2.[       ",
"    W J                                             5 c 5       ",
"    o.                                                          ",
"  W I                                                           ",
"  W                                                             "
};
